<?xml version='1.0' encoding='UTF-8'?>
<svg width="29mm" height="29mm" version="1.1" viewBox="0 0 29 29" xmlns="http://www.w3.org/2000/svg"><path d="M0,0H1V1H0zM1,0H2V1H1zM2,0H3V1H2zM3,0H4V1H3zM4,0H5V1H4zM5,0H6V1H5zM6,0H7V1H6zM9,0H10V1H9zM14,0H15V1H14zM17,0H18V1H17zM18,0H19V1H18zM22,0H23V1H22zM23,0H24V1H23zM24,0H25V1H24zM25,0H26V1H25zM26,0H27V1H26zM27,0H28V1H27zM28,0H29V1H28zM0,1H1V2H0zM6,1H7V2H6zM8,1H9V2H8zM10,1H11V2H10zM11,1H12V2H11zM14,1H15V2H14zM16,1H17V2H16zM22,1H23V2H22zM28,1H29V2H28zM0,2H1V3H0zM2,2H3V3H2zM3,2H4V3H3zM4,2H5V3H4zM6,2H7V3H6zM8,2H9V3H8zM9,2H10V3H9zM10,2H11V3H10zM11,2H12V3H11zM12,2H13V3H12zM15,2H16V3H15zM19,2H20V3H19zM22,2H23V3H22zM24,2H25V3H24zM25,2H26V3H25zM26,2H27V3H26zM28,2H29V3H28zM0,3H1V4H0zM2,3H3V4H2zM3,3H4V4H3zM4,3H5V4H4zM6,3H7V4H6zM8,3H9V4H8zM10,3H11V4H10zM12,3H13V4H12zM13,3H14V4H13zM15,3H16V4H15zM16,3H17V4H16zM17,3H18V4H17zM20,3H21V4H20zM22,3H23V4H22zM24,3H25V4H24zM25,3H26V4H25zM26,3H27V4H26zM28,3H29V4H28zM0,4H1V5H0zM2,4H3V5H2zM3,4H4V5H3zM4,4H5V5H4zM6,4H7V5H6zM9,4H10V5H9zM10,4H11V5H10zM11,4H12V5H11zM12,4H13V5H12zM16,4H17V5H16zM19,4H20V5H19zM20,4H21V5H20zM22,4H23V5H22zM24,4H25V5H24zM25,4H26V5H25zM26,4H27V5H26zM28,4H29V5H28zM0,5H1V6H0zM6,5H7V6H6zM9,5H10V6H9zM10,5H11V6H10zM14,5H15V6H14zM16,5H17V6H16zM17,5H18V6H17zM18,5H19V6H18zM20,5H21V6H20zM22,5H23V6H22zM28,5H29V6H28zM0,6H1V7H0zM1,6H2V7H1zM2,6H3V7H2zM3,6H4V7H3zM4,6H5V7H4zM5,6H6V7H5zM6,6H7V7H6zM8,6H9V7H8zM10,6H11V7H10zM12,6H13V7H12zM14,6H15V7H14zM16,6H17V7H16zM18,6H19V7H18zM20,6H21V7H20zM22,6H23V7H22zM23,6H24V7H23zM24,6H25V7H24zM25,6H26V7H25zM26,6H27V7H26zM27,6H28V7H27zM28,6H29V7H28zM8,7H9V8H8zM11,7H12V8H11zM14,7H15V8H14zM15,7H16V8H15zM16,7H17V8H16zM18,7H19V8H18zM20,7H21V8H20zM0,8H1V9H0zM6,8H7V9H6zM8,8H9V9H8zM9,8H10V9H9zM11,8H12V9H11zM15,8H16V9H15zM17,8H18V9H17zM20,8H21V9H20zM21,8H22V9H21zM22,8H23V9H22zM25,8H26V9H25zM26,8H27V9H26zM27,8H28V9H27zM0,9H1V10H0zM2,9H3V10H2zM3,9H4V10H3zM4,9H5V10H4zM5,9H6V10H5zM7,9H8V10H7zM9,9H10V10H9zM11,9H12V10H11zM13,9H14V10H13zM14,9H15V10H14zM15,9H16V10H15zM19,9H20V10H19zM21,9H22V10H21zM23,9H24V10H23zM24,9H25V10H24zM26,9H27V10H26zM27,9H28V10H27zM1,10H2V11H1zM4,10H5V11H4zM5,10H6V11H5zM6,10H7V11H6zM7,10H8V11H7zM11,10H12V11H11zM13,10H14V11H13zM14,10H15V11H14zM15,10H16V11H15zM16,10H17V11H16zM24,10H25V11H24zM1,11H2V12H1zM2,11H3V12H2zM3,11H4V12H3zM7,11H8V12H7zM9,11H10V12H9zM10,11H11V12H10zM12,11H13V12H12zM13,11H14V12H13zM18,11H19V12H18zM21,11H22V12H21zM25,11H26V12H25zM0,12H1V13H0zM2,12H3V13H2zM5,12H6V13H5zM6,12H7V13H6zM7,12H8V13H7zM9,12H10V13H9zM11,12H12V13H11zM13,12H14V13H13zM15,12H16V13H15zM16,12H17V13H16zM20,12H21V13H20zM22,12H23V13H22zM23,12H24V13H23zM28,12H29V13H28zM0,13H1V14H0zM2,13H3V14H2zM3,13H4V14H3zM4,13H5V14H4zM11,13H12V14H11zM15,13H16V14H15zM16,13H17V14H16zM17,13H18V14H17zM18,13H19V14H18zM19,13H20V14H19zM20,13H21V14H20zM22,13H23V14H22zM23,13H24V14H23zM24,13H25V14H24zM27,13H28V14H27zM28,13H29V14H28zM0,14H1V15H0zM1,14H2V15H1zM2,14H3V15H2zM3,14H4V15H3zM4,14H5V15H4zM5,14H6V15H5zM6,14H7V15H6zM8,14H9V15H8zM11,14H12V15H11zM15,14H16V15H15zM16,14H17V15H16zM20,14H21V15H20zM21,14H22V15H21zM24,14H25V15H24zM25,14H26V15H25zM26,14H27V15H26zM0,15H1V16H0zM1,15H2V16H1zM2,15H3V16H2zM5,15H6V16H5zM7,15H8V16H7zM8,15H9V16H8zM9,15H10V16H9zM10,15H11V16H10zM11,15H12V16H11zM12,15H13V16H12zM15,15H16V16H15zM18,15H19V16H18zM19,15H20V16H19zM23,15H24V16H23zM24,15H25V16H24zM26,15H27V16H26zM28,15H29V16H28zM1,16H2V17H1zM3,16H4V17H3zM6,16H7V17H6zM9,16H10V17H9zM10,16H11V17H10zM11,16H12V17H11zM12,16H13V17H12zM17,16H18V17H17zM19,16H20V17H19zM21,16H22V17H21zM23,16H24V17H23zM25,16H26V17H25zM26,16H27V17H26zM0,17H1V18H0zM3,17H4V18H3zM4,17H5V18H4zM7,17H8V18H7zM8,17H9V18H8zM10,17H11V18H10zM11,17H12V18H11zM13,17H14V18H13zM14,17H15V18H14zM15,17H16V18H15zM18,17H19V18H18zM19,17H20V18H19zM22,17H23V18H22zM23,17H24V18H23zM24,17H25V18H24zM26,17H27V18H26zM27,17H28V18H27zM28,17H29V18H28zM0,18H1V19H0zM1,18H2V19H1zM4,18H5V19H4zM5,18H6V19H5zM6,18H7V19H6zM7,18H8V19H7zM8,18H9V19H8zM9,18H10V19H9zM10,18H11V19H10zM15,18H16V19H15zM17,18H18V19H17zM19,18H20V19H19zM24,18H25V19H24zM25,18H26V19H25zM28,18H29V19H28zM0,19H1V20H0zM2,19H3V20H2zM4,19H5V20H4zM8,19H9V20H8zM12,19H13V20H12zM13,19H14V20H13zM20,19H21V20H20zM22,19H23V20H22zM0,20H1V21H0zM4,20H5V21H4zM5,20H6V21H5zM6,20H7V21H6zM7,20H8V21H7zM12,20H13V21H12zM14,20H15V21H14zM17,20H18V21H17zM19,20H20V21H19zM20,20H21V21H20zM21,20H22V21H21zM22,20H23V21H22zM23,20H24V21H23zM24,20H25V21H24zM26,20H27V21H26zM27,20H28V21H27zM28,20H29V21H28zM8,21H9V22H8zM9,21H10V22H9zM10,21H11V22H10zM14,21H15V22H14zM15,21H16V22H15zM20,21H21V22H20zM24,21H25V22H24zM25,21H26V22H25zM0,22H1V23H0zM1,22H2V23H1zM2,22H3V23H2zM3,22H4V23H3zM4,22H5V23H4zM5,22H6V23H5zM6,22H7V23H6zM9,22H10V23H9zM10,22H11V23H10zM11,22H12V23H11zM15,22H16V23H15zM16,22H17V23H16zM18,22H19V23H18zM19,22H20V23H19zM20,22H21V23H20zM22,22H23V23H22zM24,22H25V23H24zM25,22H26V23H25zM26,22H27V23H26zM0,23H1V24H0zM6,23H7V24H6zM9,23H10V24H9zM10,23H11V24H10zM14,23H15V24H14zM15,23H16V24H15zM18,23H19V24H18zM19,23H20V24H19zM20,23H21V24H20zM24,23H25V24H24zM28,23H29V24H28zM0,24H1V25H0zM2,24H3V25H2zM3,24H4V25H3zM4,24H5V25H4zM6,24H7V25H6zM11,24H12V25H11zM13,24H14V25H13zM14,24H15V25H14zM16,24H17V25H16zM19,24H20V25H19zM20,24H21V25H20zM21,24H22V25H21zM22,24H23V25H22zM23,24H24V25H23zM24,24H25V25H24zM25,24H26V25H25zM28,24H29V25H28zM0,25H1V26H0zM2,25H3V26H2zM3,25H4V26H3zM4,25H5V26H4zM6,25H7V26H6zM9,25H10V26H9zM10,25H11V26H10zM14,25H15V26H14zM15,25H16V26H15zM16,25H17V26H16zM17,25H18V26H17zM18,25H19V26H18zM19,25H20V26H19zM20,25H21V26H20zM21,25H22V26H21zM25,25H26V26H25zM26,25H27V26H26zM28,25H29V26H28zM0,26H1V27H0zM2,26H3V27H2zM3,26H4V27H3zM4,26H5V27H4zM6,26H7V27H6zM10,26H11V27H10zM11,26H12V27H11zM13,26H14V27H13zM15,26H16V27H15zM16,26H17V27H16zM18,26H19V27H18zM19,26H20V27H19zM20,26H21V27H20zM21,26H22V27H21zM22,26H23V27H22zM23,26H24V27H23zM24,26H25V27H24zM25,26H26V27H25zM26,26H27V27H26zM27,26H28V27H27zM0,27H1V28H0zM6,27H7V28H6zM9,27H10V28H9zM12,27H13V28H12zM15,27H16V28H15zM16,27H17V28H16zM22,27H23V28H22zM23,27H24V28H23zM25,27H26V28H25zM26,27H27V28H26zM28,27H29V28H28zM0,28H1V29H0zM1,28H2V29H1zM2,28H3V29H2zM3,28H4V29H3zM4,28H5V29H4zM5,28H6V29H5zM6,28H7V29H6zM8,28H9V29H8zM9,28H10V29H9zM14,28H15V29H14zM15,28H16V29H15zM17,28H18V29H17zM19,28H20V29H19zM22,28H23V29H22zM23,28H24V29H23zM24,28H25V29H24zM26,28H27V29H26z" id="qr-path" fill="#000000" fill-opacity="1" fill-rule="nonzero" stroke="none" /></svg>